Coordinates
version=1
nRows=6
nColumns=40
inDegrees=yes

Units are S.I. units (second, meters, Newtons, ...)
If the header above contains a line with 'inDegrees', this indicates whether rotational values are in degrees (yes) or radians (no).

endheader
time	pelvis_tilt	pelvis_list	pelvis_rotation	pelvis_tx	pelvis_ty	pelvis_tz	hip_flexion_r	hip_adduction_r	hip_rotation_r	knee_angle_r	knee_angle_r_beta	ankle_angle_r	subtalar_angle_r	mtp_angle_r	hip_flexion_l	hip_adduction_l	hip_rotation_l	knee_angle_l	knee_angle_l_beta	ankle_angle_l	subtalar_angle_l	mtp_angle_l	lumbar_extension	lumbar_bending	lumbar_rotation	arm_flex_r	arm_add_r	arm_rot_r	elbow_flex_r	pro_sup_r	wrist_flex_r	wrist_dev_r	arm_flex_l	arm_add_l	arm_rot_l	elbow_flex_l	pro_sup_l	wrist_flex_l	wrist_dev_l
      8.09999999999999964473	      6.87760226479091052454	     -2.81069946783180935057	   -171.39064514803544625465	      0.27507992666858110953	      0.89870815974464679510	     -0.59517896324424213184	     29.52842488782703966876	    -18.22063482631779862686	    -17.83848850847329359226	     28.23026351740812955882	      0.49271104708440743858	      1.97187963258070997341	      0.00000000000000000000	      0.00000000000000000000	     31.02025199623734863508	     -3.43670485553879112572	     -8.21807742238368099663	     26.07604021576632291612	      0.45511275764757491702	      0.68351090534365788187	      0.00000000000000000000	      0.00000000000000000000	    -44.56522094240654041641	      3.21544591549306479905	     -7.74680148054396067181	      0.00000000000000000000	    -13.58654129929261422660	      0.00000000000000000000	     75.24117124319843696867	     44.99580230980279793584	      0.00000000000000000000	      0.00000000000000000000	      0.00000000000000000000	    -13.58654129929261422660	      0.00000000000000000000	     75.24117124319843696867	     44.99580230980279793584	      0.00000000000000000000	      0.00000000000000000000
      8.10500000000000042633	      6.40797139945091398516	     -2.97522682237415203588	   -171.27211667364434788396	      0.27433755683962568472	      0.90048499989829822177	     -0.59513181004705806298	     28.64154730639929979930	    -18.27201010036563388894	    -18.00413767808965914696	     27.72215121663178294398	      0.48384281446597643406	      1.79742570911264576416	      0.00000000000000000000	      0.00000000000000000000	     30.00234352664913117792	     -3.20284162421513718400	     -8.18666167011271994625	     25.19903449494563218991	      0.43980612026042770202	      0.37363679264190369222	      0.00000000000000000000	      0.00000000000000000000	    -44.66302272668092143704	      3.14661642238681693584	     -8.02480403454931234819	      0.00000000000000000000	    -13.60198532192558573684	      0.00000000000000000000	     75.23626610847978213314	     44.99600548799035948377	      0.00000000000000000000	      0.00000000000000000000	      0.00000000000000000000	    -13.60198532192558573684	      0.00000000000000000000	     75.23626610847978213314	     44.99600548799035948377	      0.00000000000000000000	      0.00000000000000000000
      8.10999999999999943157	      6.29288323467484467244	     -2.97209114106757299467	   -171.12000280804696217274	      0.27376543165221095544	      0.90102122711179988279	     -0.59499511951984529468	     28.33777805374784364290	    -18.28045773239521665232	    -18.14485377732133741802	     27.58218154168105940016	      0.48139988278514006526	      1.82323116872937873723	      0.00000000000000000000	      0.00000000000000000000	     29.76133677615072414824	     -3.14233790323078032714	     -8.11130762849125552805	     25.01411287967573571223	      0.43657862921586176874	      0.32431942383883799463	      0.00000000000000000000	      0.00000000000000000000	    -44.28735565083479741588	      3.16818816617343790298	     -8.12761705700135372865	      0.00000000000000000000	    -13.61728843400585553525	      0.00000000000000000000	     75.23146171126542469665	     44.99619758164747906903	      0.00000000000000000000	      0.00000000000000000000	      0.00000000000000000000	    -13.61728843400585553525	      0.00000000000000000000	     75.23146171126542469665	     44.99619758164747906903	      0.00000000000000000000	      0.00000000000000000000
      8.11500000000000021316	      6.21910606873926674609	     -2.93526499360923009974	   -170.95592889491533128421	      0.27319657548448778028	      0.90154505847493604520	     -0.59486371204522869860	     28.04188274302695660367	    -18.26037628559852166177	    -18.34664089185410063010	     27.37940489020514434060	      0.47786076257071635753	      1.80616745966936820267	      0.00000000000000000000	      0.00000000000000000000	     29.57893794618147609299	     -3.10797474414347574267	     -8.00719195543272199700	     24.83436379917996461586	      0.43344141593377821797	      0.27623251465210540978	      0.00000000000000000000	      0.00000000000000000000	    -43.86300940101721579367	      3.22274169402900323433	     -8.19704211350845746153	      0.00000000000000000000	    -13.63252855362957305374	      0.00000000000000000000	     75.22672567326705461710	     44.99638129481232340368	      0.00000000000000000000	      0.00000000000000000000	      0.00000000000000000000	    -13.63252855362957305374	      0.00000000000000000000	     75.22672567326705461710	     44.99638129481232340368	      0.00000000000000000000	      0.00000000000000000000
      8.11999999999999921840	      6.44635235649068416564	     -2.75683196825773002558	   -170.69960835836931778431	      0.27274810227208201585	      0.90101850908271463592	     -0.59443707416040691971	     28.20277565041105205523	    -18.25076569862505238007	    -18.58990992685681575836	     27.47551583960661503170	      0.47953821508498967185	      1.98229979354678076398	      0.00000000000000000000	      0.00000000000000000000	     30.07516756301998839263	     -3.18116369791685515978	     -7.87357119032650842883	     25.28211954669330907564	      0.44125622797261454533	      0.42585782775039554560	      0.00000000000000000000	      0.00000000000000000000	    -43.02930734215649977159	      3.45227872986782724496	     -8.13290566864554342885	      0.00000000000000000000	    -13.64703901697937382664	      0.00000000000000000000	     75.22230507715384817402	     44.99654205675278006993	      0.00000000000000000000	      0.00000000000000000000	      0.00000000000000000000	    -13.64703901697937382664	      0.00000000000000000000	     75.22230507715384817402	     44.99654205675278006993	      0.00000000000000000000	      0.00000000000000000000
      8.12500000000000000000	      5.98518419171670235102	     -2.84714367045235761111	   -170.64939758562903193706	      0.27196144908312280819	      0.90274830855026910736	     -0.59453463668396000497	     27.33155028018871490758	    -18.18144236069938557421	    -18.77219966848561938377	     26.93723776375086487178	      0.47014349037000702225	      1.75489259245866757730	      0.00000000000000000000	      0.00000000000000000000	     29.09748262690929365704	     -3.06063079218751443733	     -7.80508044492563080041	     24.45476456592747993568	      0.42681615947547646428	      0.16136302744122235642	      0.00000000000000000000	      0.00000000000000000000	    -43.08777416134957860550	      3.32642053933967396517	     -8.30874866672632883535	      0.00000000000000000000	    -13.65816530566299924487	      0.00000000000000000000	     75.21896342126534307226	     44.99665855868383346206	      0.00000000000000000000	      0.00000000000000000000	      0.00000000000000000000	    -13.65816530566299924487	      0.00000000000000000000	     75.21896342126534307226	     44.99665855868383346206	      0.00000000000000000000	      0.00000000000000000000
